<svg version="1.1" xmlns="http://www.w3.org/2000/svg" xmlns:xlink="http://www.w3.org/1999/xlink" width="199.81112" height="250.37432" viewBox="0,0,199.81112,250.37432">
  <g transform="translate(-140.09444,-54.81284)">
    <g data-paper-data="{&quot;isPaintingLayer&quot;:true}" fill-rule="evenodd" stroke="none" stroke-width="1" stroke-linecap="butt" stroke-linejoin="miter" stroke-miterlimit="10" stroke-dasharray="" stroke-dashoffset="0" style="mix-blend-mode: normal">
      <path d="M320.3446,217.78346c-0.60416,0.68905 -1.36892,1.19915 -2.29428,1.52952c-10.51469,2.67054 -21.22135,3.68997 -32.11995,3.05904c0,-0.25467 0,-0.5101 0,-0.76476c8.78557,-49.22841 -5.74488,-90.14311 -43.59136,-122.74409c-19.27809,-15.85723 -41.45615,-22.99505 -66.53418,-21.4133c35.71432,-26.72831 73.44227,-29.78735 113.18458,-9.17713c35.10558,21.89678 52.05726,53.6342 50.85659,95.21271c-1.44081,20.00461 -7.94128,38.1042 -19.5014,54.29801z" fill="#c3f0fe" />
      <path d="M180.35652,131.01703c0,0.26769 0,0.5362 0,0.80389c-17.84064,13.16702 -30.1671,30.31655 -36.97924,51.44939c-6.91311,-41.56387 5.54729,-76.13142 37.38119,-103.70267c-4.62482,17.05676 -4.75907,34.2066 -0.40195,51.44938z" fill="#fffe80" />
      <path d="M183.25367,143.88933c-1.9805,-3.9802 -3.6511,-8.15671 -5.01181,-12.52951c0,-0.27816 0,-0.55715 0,-0.8353c3.70289,-2.15842 7.32224,-4.52566 10.85891,-7.10006c0.69497,-0.57469 1.25128,-0.43519 1.6706,0.41765c-3.1708,6.4527 -5.6767,13.1351 -7.5177,20.04722z" fill="#ffd381" />
      <path d="M178.91345,130.40046c1.24088,3.98772 2.76436,7.79644 4.57045,11.42614c0,0.76175 0,1.52348 0,2.28523c-1.784,5.02369 -2.54575,10.22944 -2.28523,15.61572c3.46365,46.45182 25.29975,81.11109 65.50985,103.97784c-38.5495,-0.92628 -68.38466,-17.43019 -89.50473,-49.51325c-6.02515,-10.3437 -10.46862,-21.26252 -13.33049,-32.75493c0,-0.76175 0,-1.52348 0,-2.28523c6.45493,-20.02469 18.13503,-36.27494 35.04015,-48.75151z" fill="#ffe93f" />
      <path d="M182.97262,142.48424c21.04414,44.14869 55.5465,70.01038 103.50709,77.58587c0,0.25836 0,0.5175 0,0.77586c-3.474,11.04202 -8.84104,20.99862 -16.1011,29.87056c19.69165,-5.56989 35.79275,-16.56071 48.3033,-32.97399c0.92773,-0.33517 1.69445,-0.85267 2.30015,-1.55172c5.60395,-1.07223 10.84371,-3.14145 15.71774,-6.20687c-13.89218,26.28221 -35.23228,43.4799 -64.02105,51.5946c-8.18856,1.93111 -16.36639,3.0949 -24.53501,3.49136c-0.5114,-0.25836 -1.02204,-0.5175 -1.53344,-0.77586c-40.47281,-23.2905 -62.45158,-58.59207 -65.93785,-105.90471c-0.26222,-5.4861 0.5045,-10.78832 2.30016,-15.90511z" fill="#fefe7f" />
      <path d="M143.8733,180.20824c2.83198,11.3724 7.22905,22.17719 13.19129,32.41288c20.89952,31.74804 50.42314,48.07961 88.57008,48.99621c0.50278,0.25101 1.0048,0.50278 1.50758,0.75379c21.02918,11.37767 43.01491,13.63904 65.95644,6.78409c0.37689,0.25101 0.75379,0.50278 1.13068,0.75379c-32.27268,35.07601 -70.71586,43.99559 -115.32955,26.75947c-37.74729,-19.05877 -57.34577,-49.8382 -58.79546,-92.33902c-0.13568,-8.35649 1.12066,-16.39639 3.76894,-24.12121z" fill="#ffd27f" />
      <path d="M321.30419,216.61656c-13.72225,17.7909 -31.3828,29.7042 -52.98165,35.74159c7.96323,-9.61659 13.85008,-20.40887 17.66055,-32.37767c11.98478,0.69381 23.75848,-0.42722 35.3211,-3.36391z" fill="#c3f0be" />
    </g>
  </g>
</svg>
